<?xml version="1.0" standalone="no"?>
<!DOCTYPE svg PUBLIC "-//W3C//DTD SVG 20010904//EN"
 "http://www.w3.org/TR/2001/REC-SVG-20010904/DTD/svg10.dtd">
<svg version="1.0" xmlns="http://www.w3.org/2000/svg"
 width="256.000000pt" height="256.000000pt" viewBox="0 0 256.000000 256.000000"
 preserveAspectRatio="xMidYMid meet">
<metadata>
Created by potrace 1.11, written by Peter Selinger 2001-2013
</metadata>
<g transform="translate(0.000000,256.000000) scale(0.100000,-0.100000)"
fill="#000000" stroke="none">
<path d="M1115 2443 c-27 -8 -59 -20 -70 -26 -11 -5 -40 -21 -65 -33 -43 -22
-174 -148 -196 -189 -6 -11 -18 -33 -27 -50 -49 -91 -52 -106 -52 -252 0 -100
4 -146 13 -154 6 -7 12 -23 12 -35 0 -19 -7 -22 -57 -27 -75 -7 -193 -27 -218
-37 -11 -4 -42 -12 -70 -18 -138 -29 -154 -33 -222 -65 l-23 -10 22 -36 c11
-20 38 -54 60 -76 21 -23 38 -44 38 -48 0 -9 141 -178 206 -247 36 -39 43 -54
52 -110 21 -126 55 -232 92 -282 11 -15 20 -36 20 -47 0 -11 5 -23 10 -26 6
-3 10 -20 10 -37 0 -16 6 -44 14 -61 48 -113 48 -117 -5 -117 -71 0 -149 -53
-149 -101 0 -18 10 -19 125 -19 l125 0 0 -48 c0 -55 20 -82 62 -82 37 0 58 29
58 83 l0 46 66 3 66 3 -61 65 c-68 72 -80 111 -33 102 15 -2 32 -9 38 -13 6
-5 39 -12 73 -15 34 -4 64 -11 67 -15 7 -12 321 -12 328 0 3 4 33 11 67 15 34
3 67 10 73 15 6 4 23 11 39 13 24 5 27 2 27 -23 0 -18 -5 -29 -14 -29 -15 0
-77 -65 -96 -99 -10 -20 -8 -21 50 -21 l60 0 0 -48 c0 -57 20 -82 67 -82 42 0
63 27 63 83 l0 47 125 0 c114 0 125 2 125 18 0 10 -17 35 -39 56 -32 31 -47
38 -95 43 -62 6 -68 17 -41 69 8 16 15 37 15 46 0 9 4 19 9 22 4 3 11 31 15
61 3 31 16 73 29 93 12 20 30 55 41 77 10 22 22 48 27 57 4 9 11 46 15 83 4
36 11 68 15 71 5 3 9 17 9 31 0 17 18 45 53 82 28 32 72 83 97 115 25 32 63
79 86 104 23 26 62 76 88 112 44 59 46 65 30 77 -10 7 -28 13 -40 13 -13 0
-25 4 -28 9 -4 5 -29 12 -56 16 -27 4 -52 11 -55 15 -3 5 -27 12 -53 15 -26 4
-54 9 -62 12 -25 10 -213 42 -247 43 -38 0 -43 21 -17 71 12 24 14 55 11 142
-5 169 -46 279 -140 376 -62 64 -164 141 -187 141 -9 0 -20 3 -24 7 -4 4 -32
15 -64 25 -71 22 -217 23 -287 1z"/>
</g>
</svg>
